<svg xmlns="http://www.w3.org/2000/svg" width="38" height="38" viewBox="0 0 38 38">
    <g fill="none" fill-rule="evenodd">
        <g transform="translate(-15.000000, -80.000000) translate(15.000000, 80.000000)">
            <rect width="38" height="38" fill="#000000" rx="2"/>
            <g>
                <path fill="#FFD400" d="M0 16.926H23.324V19.487H0z" transform="translate(7.794872, 9.743590)"/>
                <path fill="#FFF" d="M7.158 12.768c-.74 2.106-1.706 2.788-3.674 2.788-.667 0-1.328-.127-1.948-.376v-2.472c.548.224 1.132.345 1.723.355.87 0 1.24-.45 1.24-1.023-.032-.32-.12-.632-.259-.921C4.064 10.657.057.269.057.269h2.977l2.892 8.718h.037L8.523.27h2.844l-4.21 12.498zM12.248.27h2.725v.976h.045C15.945.42 17.142-.023 18.374 0c2.858 0 5.01 2.698 5.01 6.008 0 3.048-1.768 6.011-5.326 6.011-1.422 0-2.582-.511-3.085-1.138v4.535h-2.725V.27zm8.281 5.74c-.022-1.656-.767-3.467-2.82-3.467-2.054 0-2.802 1.814-2.825 3.466.023 1.655.768 3.466 2.824 3.466s2.799-1.814 2.821-3.466z" transform="translate(7.794872, 9.743590)"/>
            </g>
        </g>
        <g fill="#FFF">
            <path d="M.985 2C.435 1.992-.005 1.54 0 .99.006.44.455-.003 1.005 0 1.555.003 2 .45 2 1c0 .268-.107.524-.298.712-.191.188-.45.292-.717.288zm0-1.933C.478.066.065.476.063.983c-.003.508.406.921.914.924.507.004.921-.405.926-.912C1.9.49 1.493.083.99.08L.985.067zM.968.342c.1-.006.2.005.297.033.125.044.207.163.205.295.002.149-.103.278-.25.305.103.045.153.095.183.267.008.131.042.26.097.378h-.25c-.026-.055-.043-.114-.05-.175 0-.028-.025-.165-.032-.195-.035-.183-.123-.195-.288-.2H.785v.572H.558V.347l.41-.005zM.785.867h.188c.09 0 .272 0 .272-.175.002-.063-.033-.122-.09-.15C1.082.52 1.005.512.93.522H.785v.345z" transform="translate(-15.000000, -80.000000) translate(15.000000, 80.000000) translate(31.000000, 10.000000)"/>
        </g>
    </g>
</svg>
